<?xml version="1.0" encoding="utf-8"?><svg viewBox="0 0 28 28" xmlns="http://www.w3.org/2000/svg" xmlns:xlink="http://www.w3.org/1999/xlink"><style>:root>svg{display:none}:root>svg:target{display:block}</style><svg fill="" viewBox="0 0 24 25" id="about-left-arrow-icon" xmlns="http://www.w3.org/2000/svg"><path d="m15 7.5-6 5 6 5" stroke="" stroke-linecap="round" stroke-linejoin="round"/></svg><svg fill="" viewBox="0 0 24 25" id="about-right-arrow-icon" xmlns="http://www.w3.org/2000/svg"><path d="m9 17.5 6-5-6-5" stroke="" stroke-linecap="round" stroke-linejoin="round"/></svg><svg fill="" viewBox="0 0 20 21" id="cards-book" xmlns="http://www.w3.org/2000/svg"><path fill="" d="M0 0h20v21H0z"/><path fill="" d="M2 0h1v19H2z"/><path fill="" d="M1 0h1v21H1z"/></svg><svg fill="" viewBox="0 0 21 21" id="cards-man" xmlns="http://www.w3.org/2000/svg"><path fill-rule="evenodd" clip-rule="evenodd" d="M10.5 10a5 5 0 1 0 0-10 5 5 0 0 0 0 10zm7.071 3.929A10 10 0 0 1 20.5 21H.5a10 10 0 0 1 17.071-7.071z" fill=""/></svg><svg fill="" viewBox="0 0 20 21" id="cards-star" xmlns="http://www.w3.org/2000/svg"><path d="m10 0 2.225 3.31 3.653-1.305-.053 4.051 3.686 1.2L17.2 10.5l2.31 3.245-3.685 1.199.053 4.05-3.653-1.304L10 21l-2.225-3.31-3.653 1.305.053-4.051-3.686-1.2L2.8 10.5.49 7.255l3.685-1.199-.053-4.05L7.775 3.31 10 0z" fill=""/></svg><svg fill="" viewBox="0 0 24 24" id="footer-facebook-icon" xmlns="http://www.w3.org/2000/svg"><path d="M15.12 5.32H17V2.14A26.113 26.113 0 0 0 14.26 2c-2.72 0-4.58 1.66-4.58 4.7v2.62H6.61v3.56h3.07V22h3.68v-9.12h3.06l.46-3.56h-3.52V7.05c0-1.05.28-1.73 1.76-1.73z" fill=""/></svg><svg fill="" viewBox="0 0 24 24" id="footer-instagram-icon" xmlns="http://www.w3.org/2000/svg"><path d="M17.34 5.46a1.2 1.2 0 1 0 0 2.4 1.2 1.2 0 0 0 0-2.4zm4.6 2.42a7.588 7.588 0 0 0-.46-2.43 4.94 4.94 0 0 0-1.16-1.77 4.7 4.7 0 0 0-1.77-1.15 7.3 7.3 0 0 0-2.43-.47C15.06 2 14.72 2 12 2s-3.06 0-4.12.06a7.3 7.3 0 0 0-2.43.47 4.78 4.78 0 0 0-1.77 1.15 4.7 4.7 0 0 0-1.15 1.77 7.3 7.3 0 0 0-.47 2.43C2 8.94 2 9.28 2 12s0 3.06.06 4.12a7.3 7.3 0 0 0 .47 2.43 4.7 4.7 0 0 0 1.15 1.77 4.78 4.78 0 0 0 1.77 1.15 7.3 7.3 0 0 0 2.43.47C8.94 22 9.28 22 12 22s3.06 0 4.12-.06a7.3 7.3 0 0 0 2.43-.47 4.7 4.7 0 0 0 1.77-1.15 4.85 4.85 0 0 0 1.16-1.77c.285-.78.44-1.6.46-2.43 0-1.06.06-1.4.06-4.12s0-3.06-.06-4.12zM20.14 16a5.61 5.61 0 0 1-.34 1.86 3.06 3.06 0 0 1-.75 1.15c-.324.33-.717.586-1.15.75a5.61 5.61 0 0 1-1.86.34c-1 .05-1.37.06-4 .06s-3 0-4-.06a5.73 5.73 0 0 1-1.94-.3 3.27 3.27 0 0 1-1.1-.75 3 3 0 0 1-.74-1.15 5.54 5.54 0 0 1-.4-1.9c0-1-.06-1.37-.06-4s0-3 .06-4a5.54 5.54 0 0 1 .35-1.9A3 3 0 0 1 5 5a3.14 3.14 0 0 1 1.1-.8A5.73 5.73 0 0 1 8 3.86c1 0 1.37-.06 4-.06s3 0 4 .06a5.61 5.61 0 0 1 1.86.34 3.06 3.06 0 0 1 1.19.8c.328.307.584.683.75 1.1.222.609.337 1.252.34 1.9.05 1 .06 1.37.06 4s-.01 3-.06 4zM12 6.87A5.13 5.13 0 1 0 17.14 12 5.12 5.12 0 0 0 12 6.87zm0 8.46a3.33 3.33 0 1 1 0-6.66 3.33 3.33 0 0 1 0 6.66z" fill=""/></svg><svg fill="" viewBox="0 0 24 24" id="footer-twitter-icon" xmlns="http://www.w3.org/2000/svg"><path d="M22.991 3.95a1 1 0 0 0-1.51-.86 7.48 7.48 0 0 1-1.873.794 5.152 5.152 0 0 0-3.375-1.242 5.232 5.232 0 0 0-5.223 5.063 11.032 11.032 0 0 1-6.814-3.924 1.011 1.011 0 0 0-.857-.365.998.998 0 0 0-.785.5 5.275 5.275 0 0 0-.242 4.769l-.002.002a1.041 1.041 0 0 0-.496.888 3.04 3.04 0 0 0 .027.44 5.185 5.185 0 0 0 1.568 3.312.999.999 0 0 0-.066.77 5.204 5.204 0 0 0 2.362 2.921 7.465 7.465 0 0 1-3.59.449A1 1 0 0 0 1.45 19.3a12.942 12.942 0 0 0 7.01 2.061 12.788 12.788 0 0 0 12.465-9.363c.353-1.183.533-2.412.535-3.646l-.001-.2a5.77 5.77 0 0 0 1.532-4.202zm-3.306 3.212a.995.995 0 0 0-.234.702c.01.165.009.331.009.488a10.825 10.825 0 0 1-.454 3.08 10.685 10.685 0 0 1-10.546 7.93c-.86 0-1.715-.101-2.55-.301a9.48 9.48 0 0 0 2.942-1.564 1.001 1.001 0 0 0-.602-1.786 3.208 3.208 0 0 1-2.214-.935 4.87 4.87 0 0 0 .445-.105 1 1 0 0 0-.08-1.944 3.197 3.197 0 0 1-2.25-1.725c.181.025.363.04.545.046a1.022 1.022 0 0 0 .984-.696 1 1 0 0 0-.4-1.137 3.196 3.196 0 0 1-1.42-2.871 13.014 13.014 0 0 0 8.21 3.48 1.02 1.02 0 0 0 .817-.36 1 1 0 0 0 .206-.867 3.164 3.164 0 0 1-.087-.729 3.23 3.23 0 0 1 4.506-2.962c.403.176.766.433 1.065.756a.993.993 0 0 0 .921.298 9.27 9.27 0 0 0 1.212-.322 6.679 6.679 0 0 1-1.026 1.524z" fill=""/></svg><svg fill="" viewBox="0 0 28 28" id="header-login-icon" xmlns="http://www.w3.org/2000/svg"><path fill-rule="evenodd" clip-rule="evenodd" d="M28 14c0 7.732-6.268 14-14 14S0 21.732 0 14 6.268 0 14 0s14 6.268 14 14zm-9.333-6.222a4.667 4.667 0 1 1-9.333 0 4.667 4.667 0 0 1 9.333 0zm.833 8.5a7.778 7.778 0 0 1 2.278 5.5H6.222a7.778 7.778 0 0 1 13.278-5.5z" fill=""/></svg></svg>
